HIERARCHY
ROOT Hips
{
	OFFSET 50.191700 -14.590616 100.473000
	CHANNELS 6 Xposition Yposition Zposition Xrotation Yrotation Zrotation
	JOINT spine
	{
		OFFSET 0.000000 -0.507026 8.817047
		CHANNELS 3 Xrotation Yrotation Zrotation
		JOINT spine1
		{
			OFFSET 0.000000 -0.000002 10.776604
			CHANNELS 3 Xrotation Yrotation Zrotation
			JOINT spine2
			{
				OFFSET 0.000000 -0.000001 10.325897
				CHANNELS 3 Xrotation Yrotation Zrotation
				JOINT Neck
				{
					OFFSET 0.000000 -1.263954 26.511002
					CHANNELS 3 Xrotation Yrotation Zrotation
					JOINT Head
					{
						OFFSET 0.000000 -0.000002 8.009659
						CHANNELS 3 Xrotation Yrotation Zrotation
						End Site
						{
							OFFSET 0.000000 6.393857 19.387894
						}
					}
				}
				JOINT RightShoulder
				{
					OFFSET -4.347950 0.605420 11.151199
					CHANNELS 3 Xrotation Yrotation Zrotation
					JOINT RightArm
					{
						OFFSET 0.000000 -0.000003 14.625793
						CHANNELS 3 Xrotation Yrotation Zrotation
						JOINT RightArmRoll
						{
							OFFSET 0.000000 -0.000001 7.383408
							CHANNELS 3 Xrotation Yrotation Zrotation
							JOINT RightForeArm
							{
								OFFSET 0.000000 -0.000004 21.505203
								CHANNELS 3 Xrotation Yrotation Zrotation
								JOINT RightForeArmRoll
								{
									OFFSET 0.000000 -0.000001 8.285324
									CHANNELS 3 Xrotation Yrotation Zrotation
									JOINT RightHand
									{
										OFFSET 0.000000 -0.000003 16.626801
										CHANNELS 3 Xrotation Yrotation Zrotation
										End Site
										{
											OFFSET 0.000000 0.000000 0.100006
										}
									}
								}
							}
						}
					}
				}
				JOINT LeftShoulder
				{
					OFFSET 4.347950 0.605420 11.151199
					CHANNELS 3 Xrotation Yrotation Zrotation
					JOINT LeftArm
					{
						OFFSET 0.000000 -0.000003 14.625793
						CHANNELS 3 Xrotation Yrotation Zrotation
						JOINT LeftArmRoll
						{
							OFFSET 0.000000 -0.000001 7.383408
							CHANNELS 3 Xrotation Yrotation Zrotation
							JOINT LeftForeArm
							{
								OFFSET 0.000000 -0.000004 21.505203
								CHANNELS 3 Xrotation Yrotation Zrotation
								JOINT LeftForeArmRoll
								{
									OFFSET 0.000000 -0.000001 8.285324
									CHANNELS 3 Xrotation Yrotation Zrotation
									JOINT LeftHand
									{
										OFFSET 0.000000 -0.000003 16.626801
										CHANNELS 3 Xrotation Yrotation Zrotation
										End Site
										{
											OFFSET 0.000000 0.000000 0.100006
										}
									}
								}
							}
						}
					}
				}
			}
		}
	}
	JOINT RightUpLeg
	{
		OFFSET -7.815102 1.202170 -1.433090
		CHANNELS 3 Xrotation Yrotation Zrotation
		JOINT RightUpLegRoll
		{
			OFFSET 0.000000 -0.000003 19.495903
			CHANNELS 3 Xrotation Yrotation Zrotation
			JOINT RightLeg
			{
				OFFSET 0.000000 0.000004 -24.142700
				CHANNELS 3 Xrotation Yrotation Zrotation
				JOINT RightLegRoll
				{
					OFFSET 0.000000 -0.000004 24.221703
					CHANNELS 3 Xrotation Yrotation Zrotation
					JOINT RightFoot
					{
						OFFSET 0.000000 -0.000004 20.160500
						CHANNELS 3 Xrotation Yrotation Zrotation
						JOINT RightToeBase
						{
							OFFSET 0.000000 -0.000003 16.853195
							CHANNELS 3 Xrotation Yrotation Zrotation
							End Site
							{
								OFFSET 0.007145 0.940779 8.161865
							}
						}
					}
				}
			}
		}
	}
	JOINT LeftUpLeg
	{
		OFFSET 7.815102 1.202170 -1.433090
		CHANNELS 3 Xrotation Yrotation Zrotation
		JOINT LeftUpLegRoll
		{
			OFFSET 0.000000 -0.000003 19.496002
			CHANNELS 3 Xrotation Yrotation Zrotation
			JOINT LeftLeg
			{
				OFFSET 0.000000 -0.000004 24.142601
				CHANNELS 3 Xrotation Yrotation Zrotation
				JOINT LeftLegRoll
				{
					OFFSET 0.000000 -0.000005 24.445602
					CHANNELS 3 Xrotation Yrotation Zrotation
					JOINT LeftFoot
					{
						OFFSET 0.000000 -0.000003 19.936600
						CHANNELS 3 Xrotation Yrotation Zrotation
						JOINT LeftToeBase
						{
							OFFSET 0.000000 -0.000003 16.853195
							CHANNELS 3 Xrotation Yrotation Zrotation
							End Site
							{
								OFFSET -0.032013 0.940779 8.161865
							}
						}
					}
				}
			}
		}
	}
}
MOTION
Frames: 12
Frame Time: 0.041667
65.198509 -19.407814 99.499298 3.777031 1.319179 65.039821 -2.268033 0.727691 1.080030 -0.546543 1.420865 2.181055 1.098252 1.450773 2.163863 7.475763 50.250139 1.236285 -1.384306 -24.970396 0.428332 11.214580 -26.498878 20.499648 151.015223 -15.987195 133.868989 -0.000005 -0.000006 0.000006 9.568662 -24.225110 2.331448 -0.000006 0.000010 -3.003700 -5.000084 -7.998935 -0.000041 -62.512391 72.189540 69.823002 40.333677 84.279159 -59.253763 -0.000001 0.000002 0.000001 6.306134 9.352056 0.176027 -0.000001 -0.000014 2.999990 -4.999991 7.999920 0.000017 9.142306 -175.244896 3.892051 -179.999991 0.000006 -1.324000 165.732368 -2.404571 -0.752269 0.000000 -0.000001 0.528186 72.720806 6.609209 2.654412 43.331564 -6.691947 3.233820 -15.036014 182.199148 5.368251 -0.000004 -0.000005 -0.957156 -15.584263 2.325775 0.876403 -0.000003 -0.000002 -0.278210 72.334422 -6.814544 -2.101162 25.456907 7.349962 0.000005 
65.204102 -19.395008 99.492607 3.784828 1.304278 64.974230 -2.271914 0.726697 1.078347 -0.554244 1.418893 2.176743 1.090548 1.448607 2.159586 7.562333 50.108901 1.286484 -1.342860 -24.825096 0.522079 11.194580 -26.579949 20.448890 151.039252 -16.199378 134.028898 -0.000006 -0.000004 0.000005 9.384163 -24.237027 2.302131 -0.000006 0.000012 -3.003700 -5.000083 -7.998937 -0.000038 -62.380500 72.195257 69.680763 40.114176 84.298591 -59.009986 -0.000001 0.000002 -0.000002 6.316579 9.376463 0.171991 -0.000000 -0.000014 2.999991 -4.999991 7.999921 0.000018 9.123420 -175.212042 3.906874 -179.999991 0.000006 -1.323001 165.699870 -2.401311 -0.750898 -0.000001 -0.000003 0.531880 72.768945 6.607616 2.656523 43.247539 -6.688651 3.249140 -15.017614 182.219612 5.382689 -0.000005 -0.000004 -0.957641 -15.583836 2.314971 0.875488 -0.000003 -0.000002 -0.278616 72.329005 -6.812989 -2.105949 25.456906 7.349957 0.000007 
65.224709 -19.384809 99.467003 3.791906 1.288999 64.908278 -2.275713 0.725674 1.076939 -0.561780 1.416902 2.172739 1.083015 1.446381 2.155640 7.650655 49.964377 1.336634 -1.301642 -24.676188 0.615903 11.175084 -26.662566 20.398368 151.058513 -16.414640 134.207193 -0.000005 -0.000006 0.000005 9.175435 -24.238204 2.266015 -0.000006 0.000012 -3.003698 -5.000082 -7.998936 -0.000034 -62.245208 72.200892 69.534843 39.911353 84.317217 -58.785574 -0.000001 0.000001 0.000001 6.320053 9.398631 0.168630 0.000001 -0.000014 2.999990 -4.999991 7.999921 0.000018 9.105156 -175.179230 3.921738 -179.999991 0.000005 -1.323004 165.666867 -2.398048 -0.750536 -0.000001 -0.000002 0.535663 72.818627 6.606081 2.658862 43.162011 -6.685520 3.264280 -14.999121 182.241058 5.400213 -0.000004 -0.000005 -0.958138 -15.585976 2.300247 0.874438 -0.000002 -0.000002 -0.279182 72.321048 -6.810711 -2.112880 25.456909 7.349958 0.000004 
65.225304 -19.365112 99.469894 3.798344 1.273347 64.841971 -2.279422 0.724612 1.075761 -0.569153 1.414860 2.169022 1.075642 1.444065 2.151960 7.740316 49.816989 1.387133 -1.260258 -24.523967 0.710086 11.156064 -26.746345 20.348221 151.073935 -16.632206 134.401170 -0.000008 -0.000005 0.000007 8.947854 -24.229985 2.224514 -0.000005 0.000012 -3.003698 -5.000080 -7.998934 -0.000036 -62.106978 72.206629 69.385795 39.725073 84.334968 -58.580115 0.000000 0.000003 -0.000001 6.317565 9.418756 0.165860 -0.000001 -0.000014 2.999990 -4.999991 7.999921 0.000018 9.087442 -175.146391 3.936676 -179.999991 0.000005 -1.322006 165.633563 -2.395758 -0.749430 0.000001 -0.000002 0.539519 72.869724 6.604531 2.661206 43.075387 -6.682513 3.279357 -14.980340 182.263475 5.420300 -0.000004 -0.000005 -0.958632 -15.590078 2.282215 0.873285 -0.000003 -0.000002 -0.279900 72.310748 -6.807877 -2.121664 25.456911 7.349961 0.000006 
65.217300 -19.350809 99.462296 3.804233 1.257312 64.775506 -2.283062 0.723505 1.074786 -0.576367 1.412758 2.165543 1.068428 1.441659 2.148522 7.831023 49.667339 1.438296 -1.218350 -24.368827 0.804876 11.137440 -26.830687 20.298585 151.086571 -16.851315 134.608549 -0.000008 -0.000006 0.000005 8.706734 -24.213528 2.178908 -0.000006 0.000012 -3.003696 -5.000081 -7.998936 -0.000040 -61.967001 72.212325 69.234827 39.553666 84.351607 -58.391472 -0.000000 0.000001 -0.000001 6.310161 9.437050 0.163615 -0.000000 -0.000014 2.999991 -4.999991 7.999920 0.000018 9.070277 -175.113578 3.951694 -179.999991 0.000005 -1.322005 165.599863 -2.393452 -0.749342 0.000002 -0.000002 0.543445 72.922002 6.602953 2.663789 42.987674 -6.679608 3.294347 -14.961372 182.286862 5.442400 -0.000004 -0.000005 -0.959133 -15.595854 2.261498 0.872029 -0.000003 -0.000002 -0.280728 72.298536 -6.804523 -2.131883 25.456909 7.349959 0.000006 
65.223709 -19.335215 99.451889 3.809640 1.240921 64.708673 -2.286622 0.722344 1.073954 -0.583425 1.410567 2.162250 1.061375 1.439143 2.145293 7.922388 49.515880 1.490504 -1.175518 -24.210978 0.900565 11.119216 -26.915103 20.249394 151.097267 -17.072097 134.826350 -0.000007 -0.000006 0.000005 8.457447 -24.189965 2.130600 -0.000006 0.000011 -3.003699 -5.000079 -7.998934 -0.000036 -61.825513 72.218124 69.082241 39.396405 84.366982 -58.218702 -0.000000 0.000002 0.000002 6.298855 9.453731 0.161809 -0.000000 -0.000014 2.999991 -4.999991 7.999920 0.000019 9.053575 -175.081736 3.966646 -179.999991 0.000005 -1.320994 165.565957 -2.390190 -0.748023 -0.000000 -0.000002 0.547421 72.975066 6.601420 2.666427 42.899052 -6.676799 3.309340 -14.942009 182.310262 5.466217 -0.000005 -0.000005 -0.959638 -15.602811 2.238737 0.870707 -0.000003 -0.000002 -0.281639 72.284773 -6.800734 -2.143530 25.456907 7.349960 0.000007 
65.221405 -19.318508 99.453293 3.814660 1.224162 64.641586 -2.290111 0.721125 1.073229 -0.590329 1.408275 2.159126 1.054471 1.436506 2.142216 8.014095 49.363109 1.544072 -1.131395 -24.050836 0.997404 11.101350 -26.999104 20.200937 151.106898 -17.294683 135.051609 -0.000005 -0.000005 0.000005 8.205290 -24.160681 2.080860 -0.000006 0.000010 -3.003701 -5.000085 -7.998932 -0.000039 -61.684135 72.224080 68.929723 39.254381 84.381175 -58.062612 -0.000000 0.000001 0.000000 6.284694 9.468982 0.160346 -0.000001 -0.000015 2.999991 -4.999990 7.999921 0.000018 9.037355 -175.048924 3.981864 -179.999991 0.000005 -1.319997 165.531861 -2.387881 -0.747929 0.000001 -0.000002 0.551441 73.028799 6.599871 2.669125 42.809747 -6.674055 3.324373 -14.922358 182.334618 5.490959 -0.000004 -0.000004 -0.960142 -15.610452 2.214553 0.869321 -0.000002 -0.000002 -0.282614 72.269931 -6.796646 -2.156095 25.456909 7.349960 0.000007 
65.230110 -19.301813 99.450897 3.819373 1.207042 64.574323 -2.293511 0.719837 1.072559 -0.597082 1.405864 2.156112 1.047718 1.433740 2.139242 8.105826 49.209662 1.599300 -1.085594 -23.888698 1.095676 11.083807 -27.082100 20.153300 151.116624 -17.516575 135.282784 -0.000007 -0.000004 0.000006 7.955634 -24.126820 2.031035 -0.000006 0.000011 -3.003698 -5.000083 -7.998931 -0.000035 -61.542764 72.230063 68.777184 39.125137 84.393865 -57.920503 -0.000001 0.000001 0.000000 6.268669 9.483030 0.159202 -0.000000 -0.000014 2.999990 -4.999991 7.999920 0.000018 9.021520 -175.017095 3.997036 -179.999991 0.000006 -1.319998 165.497751 -2.385582 -0.746858 0.000003 -0.000003 0.555492 73.082956 6.598290 2.671799 42.719732 -6.671374 3.339493 -14.902394 182.358032 5.516583 -0.000004 -0.000004 -0.960651 -15.618392 2.189559 0.867894 -0.000003 -0.000002 -0.283616 72.254263 -6.792352 -2.169274 25.456904 7.349956 0.000006 
65.208305 -19.306713 99.455894 3.823862 1.189567 64.506806 -2.296840 0.718474 1.071908 -0.603687 1.403302 2.153165 1.041115 1.430823 2.136359 8.197258 49.055959 1.656517 -1.037752 -23.724935 1.195607 11.066554 -27.163599 20.106381 151.126938 -17.738739 135.516445 -0.000006 -0.000006 0.000003 7.713728 -24.089442 1.982290 -0.000004 0.000010 -3.003699 -5.000083 -7.998934 -0.000036 -61.402902 72.236217 68.626203 39.009256 84.405053 -57.792573 -0.000000 0.000001 0.000002 6.251841 9.496077 0.158237 -0.000001 -0.000014 2.999990 -4.999991 7.999921 0.000018 9.006076 -174.984283 4.012478 -179.999991 0.000005 -1.319001 165.463641 -2.383285 -0.745782 0.000002 -0.000004 0.559563 73.137167 6.596774 2.674481 42.629331 -6.668729 3.354728 -14.881941 182.382430 5.542028 -0.000005 -0.000005 -0.961166 -15.626330 2.164394 0.866453 -0.000003 -0.000002 -0.284636 72.238212 -6.787878 -2.182949 25.456907 7.349959 0.000008 
65.212105 -19.292812 99.445091 3.828207 1.171731 64.438996 -2.300100 0.717028 1.071217 -0.610148 1.400590 2.150266 1.034651 1.427747 2.133508 8.288087 48.902631 1.715997 -0.987495 -23.559882 1.297469 11.049559 -27.243097 20.060488 151.138672 -17.961311 135.749655 -0.000007 -0.000004 0.000004 7.484860 -24.050010 1.935826 -0.000004 0.000012 -3.003697 -5.000080 -7.998934 -0.000036 -61.265062 72.242522 68.477325 38.905738 84.414581 -57.677601 -0.000000 0.000001 0.000002 6.235240 9.508328 0.157394 -0.000000 -0.000014 2.999990 -4.999992 7.999921 0.000018 8.990972 -174.951471 4.028076 -179.999991 0.000005 -1.319000 165.429641 -2.380973 -0.745682 0.000003 -0.000005 0.563646 73.191276 6.595226 2.677166 42.538736 -6.666086 3.370157 -14.861192 182.406813 5.567009 -0.000004 -0.000005 -0.961680 -15.633676 2.139671 0.865010 -0.000003 -0.000002 -0.285635 72.222161 -6.783389 -2.196620 25.456911 7.349958 0.000006 
65.210709 -19.261810 99.454002 3.832510 1.153545 64.370933 -2.303279 0.715492 1.070470 -0.616468 1.397679 2.147358 1.028338 1.424500 2.130652 8.377981 48.749997 1.778085 -0.934448 -23.393716 1.401512 11.032797 -27.320017 20.015608 151.152824 -18.181760 135.980911 -0.000005 -0.000006 0.000007 7.274344 -24.009735 1.892873 -0.000005 0.000012 -3.003700 -5.000086 -7.998933 -0.000035 -61.129968 72.249106 68.331364 38.813493 84.422286 -57.574219 -0.000000 0.000001 0.000001 6.219864 9.519960 0.156592 -0.000000 -0.000014 2.999990 -4.999991 7.999921 0.000018 8.976171 -174.917689 4.043964 -179.999991 0.000005 -1.318002 165.395817 -2.378679 -0.744585 0.000003 -0.000004 0.567716 73.244975 6.593689 2.679877 42.447939 -6.663456 3.385804 -14.840024 182.429298 5.591487 -0.000005 -0.000005 -0.962193 -15.639933 2.116020 0.863584 -0.000003 -0.000002 -0.286585 72.206451 -6.778935 -2.210274 25.456907 7.349960 0.000005 
65.210007 -19.252214 99.446999 3.836856 1.135019 64.302782 -2.306391 0.713858 1.069589 -0.622648 1.394577 2.144395 1.022154 1.421063 2.127750 8.466685 48.598763 1.842977 -0.878242 -23.226852 1.507973 11.016250 -27.393951 19.971975 151.169722 -18.401949 136.206048 -0.000005 -0.000005 0.000007 7.087377 -23.969635 1.854458 -0.000007 0.000012 -3.003696 -5.000085 -7.998933 -0.000036 -60.998555 72.255909 68.189248 38.732305 84.428084 -57.481909 -0.000000 0.000002 0.000002 6.206751 9.531223 0.155732 -0.000001 -0.000014 2.999989 -4.999991 7.999919 0.000019 8.961615 -174.884863 4.059861 -179.999991 0.000005 -1.318001 165.362322 -2.376374 -0.744473 0.000003 -0.000003 0.571772 73.298059 6.592177 2.682328 42.357241 -6.660796 3.401738 -14.818268 182.452753 5.614159 -0.000004 -0.000004 -0.962708 -15.644914 2.094059 0.862213 -0.000003 -0.000002 -0.287460 72.191541 -6.774588 -2.223394 25.456909 7.349959 0.000006 
